<svg width="188" height="215" viewBox="0 0 188 215" fill="none" xmlns="http://www.w3.org/2000/svg">
<mask id="path-1-inside-1_1454_12" fill="#fffa">
<path d="M184.921 153.979C182.319 149.037 177.768 137.592 175.037 133.56C172.306 129.528 176.077 126.017 176.468 111.061C176.858 96.1043 167.688 85.7003 165.998 83.6193C164.307 81.5383 160.08 55.9173 155.919 37.7103C151.758 19.5023 154.228 16.2513 156.439 15.3403C158.651 14.4293 161.381 20.0223 162.032 25.7443C162.681 31.4663 168.274 32.5073 172.306 30.4263C176.338 28.3453 173.607 16.7703 173.607 16.7703C170.091 3.60933 156.648 -4.13567 144.117 3.40133C135.412 8.63733 135.789 20.5023 135.785 29.4453C135.781 38.3943 141.501 70.2933 142.599 77.4473C143.991 86.5263 132.747 85.5473 125.491 87.2583C113.913 89.9903 104.158 93.8923 97.0047 97.4043C89.8527 100.916 71.8397 103.321 68.3277 102.672C64.8157 102.021 62.4097 99.6153 62.4097 99.6153C62.9307 97.3403 59.9386 94.2833 59.9386 94.2833C59.9386 94.2833 59.4837 92.6573 59.3547 89.7963C59.2237 86.9343 57.3377 85.2443 57.3377 85.2443C53.6317 81.8633 50.9646 84.9843 50.0546 86.0243C49.1436 87.0653 46.9977 88.3003 45.0477 88.7553C43.0967 89.2103 37.6987 89.2753 36.3337 88.7553C34.9687 88.2353 29.7016 88.1703 29.7016 88.1703C28.9206 87.5843 27.6517 87.7793 26.6767 87.8283C25.7007 87.8773 22.5796 87.8773 21.3126 87.7303C20.0446 87.5843 11.2167 84.4143 9.31465 84.3653C7.41365 84.3163 11.1687 89.9733 11.9487 91.2423C12.7287 92.5103 15.6066 96.5093 15.6066 96.5093C16.1436 98.7533 18.7277 100.947 18.4837 101.532C18.4597 101.593 18.4236 101.713 18.3826 101.881C17.2616 100.713 16.0517 99.6393 14.8187 98.6893C11.5077 96.1393 7.71664 94.3443 3.58064 93.6503C3.47764 93.6333 3.43364 93.7903 3.53764 93.8093C7.43664 94.5233 11.0476 96.1923 14.2216 98.5493C15.7436 99.6783 17.0667 100.955 18.2807 102.329C18.1927 102.735 18.0887 103.271 17.9747 103.894C16.8767 103.02 15.7106 102.234 14.4166 101.677C14.3506 101.648 14.2897 101.741 14.3577 101.777C15.6247 102.457 16.8097 103.214 17.9397 104.084C17.9027 104.282 17.8666 104.489 17.8306 104.702C17.6956 104.639 17.5657 104.568 17.4267 104.512C15.0617 103.55 12.3047 103.666 9.80266 103.631C9.74166 103.631 9.74166 103.725 9.80266 103.726C12.1417 103.772 14.5467 103.746 16.8057 104.437C17.1577 104.544 17.4906 104.676 17.8096 104.825C17.6876 105.532 17.5617 106.309 17.4397 107.115C12.0167 106.693 5.87264 108.11 1.75264 111.723C1.69064 111.778 1.77566 111.889 1.84166 111.838C6.15066 108.532 11.9876 107.062 17.4126 107.309C17.3906 107.455 17.3686 107.602 17.3476 107.75C15.6476 107.933 13.9686 108.388 12.6886 109.586C12.6396 109.631 12.7047 109.72 12.7597 109.68C14.1327 108.673 15.6757 108.209 17.3117 108C17.1107 109.41 16.9336 110.855 16.8266 112.115C16.4856 116.163 19.6547 119.626 20.4357 120.715C20.8397 121.279 20.7067 122.2 20.5867 123.403C15.4447 123.021 9.68465 124.265 5.76265 127.728C5.71265 127.773 5.77964 127.861 5.83464 127.822C10.1006 124.788 15.3527 123.417 20.5607 123.665C20.5117 124.203 20.4737 124.794 20.4887 125.431C17.2087 125.231 13.7437 126.341 11.1207 128.274C11.0227 128.346 11.1046 128.489 11.2176 128.438C14.1946 127.062 17.1776 125.624 20.4946 125.682C20.5106 125.999 20.5417 126.329 20.5907 126.667C12.2117 127.85 3.79565 133.481 0.176652 141.192C0.133652 141.283 0.261645 141.361 0.313645 141.271C4.58165 133.851 12.1427 128.334 20.6117 126.82C20.6427 127.02 20.6817 127.223 20.7287 127.43C20.7627 127.578 20.8047 127.718 20.8507 127.854C17.4807 129.836 14.9667 133.108 13.0517 136.455C11.0077 140.03 9.31764 144.283 9.25664 148.45C9.25564 148.528 9.36865 148.526 9.37465 148.45C9.71765 144.348 11.1806 140.434 13.1876 136.864C15.0796 133.501 17.6286 130.186 20.9476 128.109C21.0556 128.366 21.1866 128.6 21.3346 128.811C17.9436 131.494 15.3797 134.971 14.1397 139.17C14.1207 139.23 14.2177 139.273 14.2427 139.214C15.1197 137.153 16.0606 135.14 17.3566 133.304C18.5046 131.676 19.9316 130.259 21.4676 128.992C21.7116 129.3 21.9917 129.556 22.2887 129.767C19.8617 133.307 19.4447 137.921 19.5957 142.111C19.5987 142.187 19.7126 142.187 19.7146 142.111C19.8826 137.916 20.0916 133.471 22.4606 129.884C22.7366 130.063 23.0236 130.208 23.3046 130.324C22.9736 131.293 22.9597 132.351 23.4967 133.27C23.5347 133.337 23.6496 133.293 23.6236 133.216C23.2866 132.236 23.2117 131.319 23.4877 130.397C24.4637 130.764 25.3126 130.796 25.3126 130.796C26.2386 131.967 28.0766 133.43 29.7656 133.43C30.5346 133.43 31.6787 133.214 32.6987 132.98C34.1007 135.935 34.2416 139.115 33.9376 142.403C33.9326 142.465 34.0366 142.479 34.0456 142.418C34.5386 139.186 34.3046 135.864 32.8786 132.938C33.0136 132.907 33.1466 132.875 33.2746 132.843C36.7056 139.564 35.7667 147.252 33.9007 154.279C33.8687 154.4 34.0456 154.445 34.0856 154.329C36.4876 147.577 36.9637 139.26 33.5147 132.784C34.0297 132.654 34.4556 132.537 34.7106 132.465C35.9716 136.094 36.5126 140.271 36.1926 144.063C36.1866 144.12 36.2737 144.117 36.2807 144.063C36.7547 140.289 36.1556 136.036 34.8656 132.42C34.9266 132.402 34.9697 132.389 34.9697 132.389C34.9697 132.389 34.9696 132.389 35.6196 134.08C36.2696 135.77 38.2216 143.184 40.8216 149.426C43.4226 155.669 45.5036 160.35 46.2836 164.383C47.0636 168.414 45.1137 176.087 43.6817 180.639C42.2507 185.191 40.6917 193.644 39.7807 196.375C38.8717 199.105 35.0997 202.227 33.2777 202.488C28.4697 203.175 25.8646 206 24.9556 208.601C24.0446 211.202 25.9947 214.193 29.7027 214.453C33.4087 214.713 36.2696 216.014 42.5126 213.153C48.7546 210.292 48.6247 203.268 50.1867 201.969C51.7467 200.668 56.1686 191.174 59.6806 185.581C63.1906 179.989 66.9627 175.827 69.0437 173.096C71.1237 170.366 72.1647 165.944 73.7257 165.813C75.2867 165.682 78.1467 165.163 79.0577 165.553C79.9687 165.944 79.7077 165.944 80.4887 167.764C81.2687 169.585 83.4797 179.599 83.3497 181.55C83.2197 183.501 83.6106 190.133 83.2186 192.344C82.8286 194.555 82.3097 198.977 81.9187 199.367C81.5277 199.756 80.6177 199.237 80.6177 199.237C78.1467 199.237 75.5456 201.058 74.6356 204.829C73.7246 208.6 77.1066 208.731 77.1066 208.731C77.7566 210.682 83.0886 209.641 83.0886 209.641C85.5606 211.072 88.8116 210.291 92.1926 207.301C95.5736 204.309 97.7856 196.506 98.1746 192.994C98.5646 189.483 98.8246 182.459 99.8646 178.949C100.905 175.438 103.117 168.674 104.418 162.172C105.718 155.669 107.799 157.49 113.131 155.929C118.463 154.368 130.168 154.498 130.168 154.498C130.688 158.269 139.662 164.772 140.442 166.594C141.222 168.414 139.011 177.778 139.011 177.778C137.581 181.029 136.409 180.639 130.167 181.549C123.925 182.459 126.005 189.483 126.005 189.483C128.819 192.577 134.883 191.399 138.49 191.174C140.571 191.044 141.612 188.572 144.473 185.711C147.334 182.85 154.876 169.715 156.957 165.943C158.284 163.538 157.444 161.559 156.66 160.438C159.455 163.562 162.675 166.414 166.321 168.414C170.353 170.625 173.214 169.454 173.214 169.454C173.214 169.454 173.475 170.625 173.344 172.577C173.215 174.527 172.304 185.842 171.914 187.923C171.523 190.004 170.613 190.914 168.532 191.435C166.45 191.956 164.371 192.865 163.2 196.637C162.029 200.408 165.801 200.149 165.801 200.149C168.012 203.92 173.214 201.45 173.214 201.45C176.466 203.79 179.456 200.8 181.278 198.979C183.098 197.159 184.009 193.647 184.79 190.915C185.57 188.185 185.05 174.659 187.001 168.157C188.953 161.651 187.521 158.92 184.921 153.979Z"/>
</mask>
<path d="M184.921 153.979C182.319 149.037 177.768 137.592 175.037 133.56C172.306 129.528 176.077 126.017 176.468 111.061C176.858 96.1043 167.688 85.7003 165.998 83.6193C164.307 81.5383 160.08 55.9173 155.919 37.7103C151.758 19.5023 154.228 16.2513 156.439 15.3403C158.651 14.4293 161.381 20.0223 162.032 25.7443C162.681 31.4663 168.274 32.5073 172.306 30.4263C176.338 28.3453 173.607 16.7703 173.607 16.7703C170.091 3.60933 156.648 -4.13567 144.117 3.40133C135.412 8.63733 135.789 20.5023 135.785 29.4453C135.781 38.3943 141.501 70.2933 142.599 77.4473C143.991 86.5263 132.747 85.5473 125.491 87.2583C113.913 89.9903 104.158 93.8923 97.0047 97.4043C89.8527 100.916 71.8397 103.321 68.3277 102.672C64.8157 102.021 62.4097 99.6153 62.4097 99.6153C62.9307 97.3403 59.9386 94.2833 59.9386 94.2833C59.9386 94.2833 59.4837 92.6573 59.3547 89.7963C59.2237 86.9343 57.3377 85.2443 57.3377 85.2443C53.6317 81.8633 50.9646 84.9843 50.0546 86.0243C49.1436 87.0653 46.9977 88.3003 45.0477 88.7553C43.0967 89.2103 37.6987 89.2753 36.3337 88.7553C34.9687 88.2353 29.7016 88.1703 29.7016 88.1703C28.9206 87.5843 27.6517 87.7793 26.6767 87.8283C25.7007 87.8773 22.5796 87.8773 21.3126 87.7303C20.0446 87.5843 11.2167 84.4143 9.31465 84.3653C7.41365 84.3163 11.1687 89.9733 11.9487 91.2423C12.7287 92.5103 15.6066 96.5093 15.6066 96.5093C16.1436 98.7533 18.7277 100.947 18.4837 101.532C18.4597 101.593 18.4236 101.713 18.3826 101.881C17.2616 100.713 16.0517 99.6393 14.8187 98.6893C11.5077 96.1393 7.71664 94.3443 3.58064 93.6503C3.47764 93.6333 3.43364 93.7903 3.53764 93.8093C7.43664 94.5233 11.0476 96.1923 14.2216 98.5493C15.7436 99.6783 17.0667 100.955 18.2807 102.329C18.1927 102.735 18.0887 103.271 17.9747 103.894C16.8767 103.02 15.7106 102.234 14.4166 101.677C14.3506 101.648 14.2897 101.741 14.3577 101.777C15.6247 102.457 16.8097 103.214 17.9397 104.084C17.9027 104.282 17.8666 104.489 17.8306 104.702C17.6956 104.639 17.5657 104.568 17.4267 104.512C15.0617 103.55 12.3047 103.666 9.80266 103.631C9.74166 103.631 9.74166 103.725 9.80266 103.726C12.1417 103.772 14.5467 103.746 16.8057 104.437C17.1577 104.544 17.4906 104.676 17.8096 104.825C17.6876 105.532 17.5617 106.309 17.4397 107.115C12.0167 106.693 5.87264 108.11 1.75264 111.723C1.69064 111.778 1.77566 111.889 1.84166 111.838C6.15066 108.532 11.9876 107.062 17.4126 107.309C17.3906 107.455 17.3686 107.602 17.3476 107.75C15.6476 107.933 13.9686 108.388 12.6886 109.586C12.6396 109.631 12.7047 109.72 12.7597 109.68C14.1327 108.673 15.6757 108.209 17.3117 108C17.1107 109.41 16.9336 110.855 16.8266 112.115C16.4856 116.163 19.6547 119.626 20.4357 120.715C20.8397 121.279 20.7067 122.2 20.5867 123.403C15.4447 123.021 9.68465 124.265 5.76265 127.728C5.71265 127.773 5.77964 127.861 5.83464 127.822C10.1006 124.788 15.3527 123.417 20.5607 123.665C20.5117 124.203 20.4737 124.794 20.4887 125.431C17.2087 125.231 13.7437 126.341 11.1207 128.274C11.0227 128.346 11.1046 128.489 11.2176 128.438C14.1946 127.062 17.1776 125.624 20.4946 125.682C20.5106 125.999 20.5417 126.329 20.5907 126.667C12.2117 127.85 3.79565 133.481 0.176652 141.192C0.133652 141.283 0.261645 141.361 0.313645 141.271C4.58165 133.851 12.1427 128.334 20.6117 126.82C20.6427 127.02 20.6817 127.223 20.7287 127.43C20.7627 127.578 20.8047 127.718 20.8507 127.854C17.4807 129.836 14.9667 133.108 13.0517 136.455C11.0077 140.03 9.31764 144.283 9.25664 148.45C9.25564 148.528 9.36865 148.526 9.37465 148.45C9.71765 144.348 11.1806 140.434 13.1876 136.864C15.0796 133.501 17.6286 130.186 20.9476 128.109C21.0556 128.366 21.1866 128.6 21.3346 128.811C17.9436 131.494 15.3797 134.971 14.1397 139.17C14.1207 139.23 14.2177 139.273 14.2427 139.214C15.1197 137.153 16.0606 135.14 17.3566 133.304C18.5046 131.676 19.9316 130.259 21.4676 128.992C21.7116 129.3 21.9917 129.556 22.2887 129.767C19.8617 133.307 19.4447 137.921 19.5957 142.111C19.5987 142.187 19.7126 142.187 19.7146 142.111C19.8826 137.916 20.0916 133.471 22.4606 129.884C22.7366 130.063 23.0236 130.208 23.3046 130.324C22.9736 131.293 22.9597 132.351 23.4967 133.27C23.5347 133.337 23.6496 133.293 23.6236 133.216C23.2866 132.236 23.2117 131.319 23.4877 130.397C24.4637 130.764 25.3126 130.796 25.3126 130.796C26.2386 131.967 28.0766 133.43 29.7656 133.43C30.5346 133.43 31.6787 133.214 32.6987 132.98C34.1007 135.935 34.2416 139.115 33.9376 142.403C33.9326 142.465 34.0366 142.479 34.0456 142.418C34.5386 139.186 34.3046 135.864 32.8786 132.938C33.0136 132.907 33.1466 132.875 33.2746 132.843C36.7056 139.564 35.7667 147.252 33.9007 154.279C33.8687 154.4 34.0456 154.445 34.0856 154.329C36.4876 147.577 36.9637 139.26 33.5147 132.784C34.0297 132.654 34.4556 132.537 34.7106 132.465C35.9716 136.094 36.5126 140.271 36.1926 144.063C36.1866 144.12 36.2737 144.117 36.2807 144.063C36.7547 140.289 36.1556 136.036 34.8656 132.42C34.9266 132.402 34.9697 132.389 34.9697 132.389C34.9697 132.389 34.9696 132.389 35.6196 134.08C36.2696 135.77 38.2216 143.184 40.8216 149.426C43.4226 155.669 45.5036 160.35 46.2836 164.383C47.0636 168.414 45.1137 176.087 43.6817 180.639C42.2507 185.191 40.6917 193.644 39.7807 196.375C38.8717 199.105 35.0997 202.227 33.2777 202.488C28.4697 203.175 25.8646 206 24.9556 208.601C24.0446 211.202 25.9947 214.193 29.7027 214.453C33.4087 214.713 36.2696 216.014 42.5126 213.153C48.7546 210.292 48.6247 203.268 50.1867 201.969C51.7467 200.668 56.1686 191.174 59.6806 185.581C63.1906 179.989 66.9627 175.827 69.0437 173.096C71.1237 170.366 72.1647 165.944 73.7257 165.813C75.2867 165.682 78.1467 165.163 79.0577 165.553C79.9687 165.944 79.7077 165.944 80.4887 167.764C81.2687 169.585 83.4797 179.599 83.3497 181.55C83.2197 183.501 83.6106 190.133 83.2186 192.344C82.8286 194.555 82.3097 198.977 81.9187 199.367C81.5277 199.756 80.6177 199.237 80.6177 199.237C78.1467 199.237 75.5456 201.058 74.6356 204.829C73.7246 208.6 77.1066 208.731 77.1066 208.731C77.7566 210.682 83.0886 209.641 83.0886 209.641C85.5606 211.072 88.8116 210.291 92.1926 207.301C95.5736 204.309 97.7856 196.506 98.1746 192.994C98.5646 189.483 98.8246 182.459 99.8646 178.949C100.905 175.438 103.117 168.674 104.418 162.172C105.718 155.669 107.799 157.49 113.131 155.929C118.463 154.368 130.168 154.498 130.168 154.498C130.688 158.269 139.662 164.772 140.442 166.594C141.222 168.414 139.011 177.778 139.011 177.778C137.581 181.029 136.409 180.639 130.167 181.549C123.925 182.459 126.005 189.483 126.005 189.483C128.819 192.577 134.883 191.399 138.49 191.174C140.571 191.044 141.612 188.572 144.473 185.711C147.334 182.85 154.876 169.715 156.957 165.943C158.284 163.538 157.444 161.559 156.66 160.438C159.455 163.562 162.675 166.414 166.321 168.414C170.353 170.625 173.214 169.454 173.214 169.454C173.214 169.454 173.475 170.625 173.344 172.577C173.215 174.527 172.304 185.842 171.914 187.923C171.523 190.004 170.613 190.914 168.532 191.435C166.45 191.956 164.371 192.865 163.2 196.637C162.029 200.408 165.801 200.149 165.801 200.149C168.012 203.92 173.214 201.45 173.214 201.45C176.466 203.79 179.456 200.8 181.278 198.979C183.098 197.159 184.009 193.647 184.79 190.915C185.57 188.185 185.05 174.659 187.001 168.157C188.953 161.651 187.521 158.92 184.921 153.979Z" fill="white" stroke="#B20000" stroke-width="6" mask="url(#path-1-inside-1_1454_12)"/>
</svg>
